<svg width="3025" height="1109" xmlns="http://www.w3.org/2000/svg" xmlns:xlink="http://www.w3.org/1999/xlink" xml:space="preserve" overflow="hidden"><g transform="translate(-969 -414)"><path d="M969 893C969 857.102 998.102 828 1034 828 1069.9 828 1099 857.102 1099 893 1099 928.899 1069.9 958 1034 958 998.102 958 969 928.899 969 893Z" fill="#1C84A4" fill-rule="evenodd"/><path d="M1102 963C1102 927.101 1130.88 898 1166.5 898 1202.12 898 1231 927.101 1231 963 1231 998.899 1202.12 1028 1166.5 1028 1130.88 1028 1102 998.899 1102 963Z" fill="#24A1C8" fill-rule="evenodd"/><path d="M1102 813C1102 777.102 1130.88 748 1166.5 748 1202.12 748 1231 777.102 1231 813 1231 848.898 1202.12 878 1166.5 878 1130.88 878 1102 848.898 1102 813Z" fill="#24A1C8" fill-rule="evenodd"/><path d="M1233 745C1233 709.101 1262.1 680 1298 680 1333.9 680 1363 709.101 1363 745 1363 780.898 1333.9 810 1298 810 1262.1 810 1233 780.898 1233 745Z" fill="#15B6A9" fill-rule="evenodd"/><path d="M1233 893C1233 857.102 1262.1 828 1298 828 1333.9 828 1363 857.102 1363 893 1363 928.899 1333.9 958 1298 958 1262.1 958 1233 928.899 1233 893Z" fill="#15B6A9" fill-rule="evenodd"/><path d="M1233 1041C1233 1005.1 1262.1 976 1298 976 1333.9 976 1363 1005.1 1363 1041 1363 1076.9 1333.9 1106 1298 1106 1262.1 1106 1233 1076.9 1233 1041Z" fill="#15B6A9" fill-rule="evenodd"/><text fill="#1D83A3" font-family="Aptos,Aptos_MSFontService,sans-serif" font-weight="700" font-size="527" transform="matrix(1 0 0 1 1509.44 1060)">MedBrief</text></g></svg>